PathFileType  4	(X/Y/Z) C:\Users\antoi\Documents\MyRepositories\mobilecap\ResultsAnalysis
DataRate	CameraRate	NumFrames	NumMarkers	Units	OrigDataRate	OrigDataStartFrame	OrigNumFrames
100.0	100.0	4	51	mm	100.0	336	1341
Frame#	Time	r_knee			r_shank_antsup			r_ankle			r_calc			r_5meta			r_toe			L_knee			L_shank_antsup			L_ankle			L_calc			L_5meta			L_toe			r_sh2			r_sh3			r_sh4			L_sh2			L_sh3			r_thigh1			r_thigh2			r_thigh3			r_thigh4			r_thigh5			L_thigh1			L_thigh2			L_thigh3			L_thigh4			r.ASIS			r.PSIS			L.ASIS			L.PSIS			C7			R_Shoulder			L_Shoulder			R_Sternum			L_Sternum			R_humerus			R_elbow_med			R_elbow_lat			R_forearm			R_wrist_radius			R_wrist_ulna			L_humerus			L_elbow_med			L_elbow_lat			L_forearm			L_wrist_radius			L_wrist_ulna			R_HJC			L_HJC			R_HJC_reg			L_HJC_reg			
		X1	Y1	Z1	X2	Y2	Z2	X3	Y3	Z3	X4	Y4	Z4	X5	Y5	Z5	X6	Y6	Z6	X7	Y7	Z7	X8	Y8	Z8	X9	Y9	Z9	X10	Y10	Z10	X11	Y11	Z11	X12	Y12	Z12	X13	Y13	Z13	X14	Y14	Z14	X15	Y15	Z15	X16	Y16	Z16	X17	Y17	Z17	X18	Y18	Z18	X19	Y19	Z19	X20	Y20	Z20	X21	Y21	Z21	X22	Y22	Z22	X23	Y23	Z23	X24	Y24	Z24	X25	Y25	Z25	X26	Y26	Z26	X27	Y27	Z27	X28	Y28	Z28	X29	Y29	Z29	X30	Y30	Z30	X31	Y31	Z31	X32	Y32	Z32	X33	Y33	Z33	X34	Y34	Z34	X35	Y35	Z35	X36	Y36	Z36	X37	Y37	Z37	X38	Y38	Z38	X39	Y39	Z39	X40	Y40	Z40	X41	Y41	Z41	X42	Y42	Z42	X43	Y43	Z43	X44	Y44	Z44	X45	Y45	Z45	X46	Y46	Z46	X47	Y47	Z47	X48	Y48	Z48	X49	Y49	Z49	X50	Y50	Z50	X51	Y51	Z51	

336	3.35000000	-153.11404	486.05781	-334.97403	-113.39238	434.94792	-341.26173	-257.72743	96.26213	-355.19326	-317.55859	58.38957	-407.14276	-140.98390	40.13792	-311.53994	-98.09644	60.03107	-365.33292	-167.61713	491.47747	-753.97062	-147.15639	410.96513	-784.73170	-251.18861	101.81302	-795.29943	-310.03897	57.18326	-749.75975	-134.96621	41.44202	-833.92807	-90.67657	60.08032	-780.43941	-139.69217	322.11293	-353.91468	-180.94625	445.37064	-305.21891	-204.25718	331.50418	-300.79911	-231.69613	437.48487	-778.98064	-257.01246	318.69899	-797.18029	-151.12458	791.07756	-399.90680	-112.19054	685.80069	-389.02143	-124.28822	666.35104	-323.00053	-210.28066	779.14093	-307.88592	-174.97162	670.29086	-299.23278	-222.43628	801.08587	-699.20294	-189.30067	670.63417	-745.29532	-329.55076	767.63230	-684.98481	-290.84179	634.34097	-702.14806	-185.60710	932.08697	-380.18248	-368.03543	986.50103	-463.50339	-185.21834	900.21769	-613.10629	-366.66585	978.29255	-561.13022	-223.93568	1423.42469	-522.58522	-154.35684	1383.88207	-352.97692	-148.63712	1376.35948	-676.38261	-113.97230	1331.12848	-496.38410	-110.38243	1324.53016	-530.91586	-174.87800	1172.70577	-232.04406	-234.68556	1064.42074	-245.55176	-194.90295	1089.78846	-189.95220	-63.41873	1100.19349	-241.08449	12.79104	1129.18200	-300.08678	24.63149	1088.91700	-284.83282	-166.57512	1162.87046	-784.98231	-204.51921	1039.91123	-751.08944	-182.90812	1058.63294	-816.84815	-42.13964	1077.63777	-771.88115	41.65787	1113.42962	-719.96312	50.66407	1068.40254	-721.33077	-272.11347	859.80914	-407.77296	-280.56778	847.01444	-597.82654	-265.97184	864.01701	-408.20133	-263.80252	851.01808	-562.80246	
337	3.36000000	-150.13636	484.67280	-334.64609	-110.01626	433.24945	-340.92401	-257.57431	96.14914	-355.18176	-317.57026	58.30569	-407.20259	-140.95747	40.16533	-311.55395	-98.17662	60.16886	-365.33942	-166.19785	490.84095	-754.06271	-145.11285	410.20463	-785.30489	-251.13086	101.83351	-795.23690	-310.03818	57.22378	-749.72360	-134.97176	41.44309	-833.92446	-90.67993	60.09719	-780.45126	-137.42608	320.87606	-354.00115	-177.42793	444.03728	-304.87652	-201.79933	330.25610	-300.85873	-229.42328	437.41578	-779.45237	-255.56591	318.78607	-797.44258	-154.26119	789.74762	-398.79031	-112.97562	685.41926	-387.68413	-124.71717	665.51024	-321.94183	-213.58337	776.56727	-306.98428	-175.92350	668.41966	-298.39791	-226.48731	798.71406	-698.76825	-190.92874	669.13146	-745.43274	-333.10002	763.49044	-684.93167	-291.80539	631.08380	-702.42214	-189.63243	927.24156	-379.87444	-371.48588	983.92555	-462.78116	-189.66749	895.15643	-612.13355	-370.23471	975.80974	-560.48040	-220.74416	1418.63912	-522.47913	-151.09553	1378.66499	-352.83000	-145.50420	1370.69192	-675.42878	-110.82443	1325.77155	-495.30654	-108.33272	1318.33591	-530.42389	-171.03642	1168.43568	-230.86183	-230.60126	1059.84590	-243.23769	-190.71804	1085.82021	-187.89512	-59.59341	1097.15438	-239.69814	16.19583	1126.06948	-299.20663	28.25655	1085.92463	-283.89431	-162.64030	1157.82126	-784.72981	-199.99095	1034.40776	-751.40732	-178.52728	1053.45568	-816.89334	-38.04471	1074.05966	-771.58888	45.19656	1110.94151	-719.82287	54.74935	1066.03673	-721.35951	-277.12280	856.10054	-407.03847	-285.81013	843.26329	-597.07802	-270.76347	860.07800	-407.82598	-268.78820	847.26892	-562.03030	
338	3.37000000	-147.52317	483.22400	-334.28756	-106.79157	431.49323	-340.35892	-257.50420	96.05312	-355.15332	-317.58820	58.17976	-407.25640	-140.95888	40.19019	-311.59591	-98.25512	60.34379	-365.35783	-165.07679	490.36360	-753.88186	-143.06029	409.44206	-785.96944	-251.06987	101.87054	-795.17716	-310.05414	57.26099	-749.68614	-134.96078	41.45424	-833.91335	-90.68394	60.11718	-780.45255	-135.28152	319.41767	-353.82993	-174.29899	442.71148	-304.41987	-200.32774	329.80207	-300.06919	-227.20304	437.25410	-779.78460	-254.03756	318.80904	-797.73043	-157.27068	788.33486	-397.49028	-113.84600	684.81598	-386.36540	-125.24407	664.41106	-320.94882	-216.93600	773.72573	-306.20197	-177.06307	666.30419	-297.68610	-230.63022	796.23769	-698.35799	-192.64541	667.55852	-745.56023	-336.67574	759.10237	-684.75854	-292.75808	627.76031	-702.72543	-193.66840	922.27316	-379.38617	-374.85306	981.16912	-462.09432	-194.14477	889.48084	-610.94433	-373.71875	973.08575	-559.87467	-217.54051	1413.57918	-522.27827	-147.87854	1373.12726	-352.68508	-142.36164	1364.65606	-674.59538	-107.18067	1320.51078	-494.77403	-106.29645	1311.88530	-529.91235	-167.07340	1163.91581	-229.49974	-226.39048	1055.02110	-240.98417	-186.38599	1081.55049	-185.87326	-55.61383	1093.67569	-238.37830	19.69490	1122.58680	-298.36861	32.04252	1082.48862	-282.93196	-158.73234	1152.37209	-784.40044	-195.50053	1028.67920	-751.50619	-174.10826	1047.98069	-816.96551	-34.02644	1070.22492	-771.33244	48.72598	1108.14446	-719.67914	58.78542	1063.27712	-721.12278	-282.22976	852.30536	-406.04572	-291.10322	839.06010	-596.04865	-275.58016	855.84213	-407.20586	-273.79547	843.12662	-561.02557	
339	3.38000000	-144.98951	481.88902	-333.84042	-103.71698	429.81636	-339.76074	-257.52000	95.77447	-355.34738	-317.63845	58.02953	-407.21569	-141.00278	40.21820	-311.64348	-98.29095	60.51523	-365.34375	-163.50446	489.79802	-754.12138	-141.01294	408.75190	-786.75754	-250.99350	101.92437	-795.15951	-309.95595	57.18198	-749.71212	-134.96188	41.47329	-833.92108	-90.69204	60.13765	-780.47292	-133.27034	318.01753	-353.62238	-171.29733	441.62662	-303.99866	-198.64711	329.47114	-299.30019	-225.05353	436.99105	-780.06487	-252.54036	318.71358	-797.87839	-160.23625	786.73524	-396.25927	-114.89995	684.04089	-385.20325	-126.12224	663.16389	-320.03156	-220.33667	770.54857	-305.54191	-178.29336	663.94661	-297.09902	-234.73924	793.82768	-698.14757	-194.35096	665.91089	-745.63233	-340.11423	754.60835	-684.72582	-293.63377	624.24956	-703.07667	-197.72086	917.18410	-378.83817	-378.17061	978.12333	-461.58833	-198.51297	884.03804	-610.03054	-377.22471	970.17629	-559.27286	-214.37231	1408.24524	-521.95231	-144.87041	1366.96962	-352.86674	-139.23133	1358.22949	-673.79892	-104.88188	1313.15997	-494.47892	-104.30235	1305.13443	-529.44747	-163.13417	1159.04957	-228.15831	-222.13039	1049.85549	-238.59627	-181.98562	1076.89410	-183.99307	-51.62591	1089.58544	-237.08990	23.20741	1118.75438	-297.59401	35.98834	1078.81774	-281.83023	-154.80710	1146.51595	-784.00063	-190.98017	1022.65754	-751.45283	-169.68902	1042.27422	-817.14700	-30.07774	1066.17531	-771.36069	52.32846	1104.89490	-719.46118	62.86139	1060.27509	-720.95028	-287.19478	848.29248	-405.28533	-296.17133	834.90956	-595.27450	-280.24796	851.45008	-406.57173	-278.76084	838.95197	-560.20456	
